<svg width="10" height="12" viewBox="0 0 10 12" fill="none" xmlns="http://www.w3.org/2000/svg">
<path d="M4.85847 4.18877L3.86616 5.07908C3.99643 5.52838 4.1797 5.96058 4.41211 6.36656C4.654 6.76974 4.945 7.14135 5.27843 7.47285L6.5635 7.07689C7.28343 6.85491 8.06935 7.08289 8.54811 7.65283L9.28004 8.52395C9.57638 8.87365 9.72494 9.32498 9.69426 9.78233C9.66357 10.2397 9.45605 10.6671 9.11565 10.9741C7.92177 12.0636 6.08355 12.432 4.70728 11.3509C3.49771 10.3985 2.47428 9.23103 1.68838 7.90721C0.90075 6.58961 0.373644 5.13294 0.135727 3.61643C-0.128247 1.91019 1.12083 0.544727 2.67828 0.0791728C3.60699 -0.1992 4.59809 0.278353 4.93886 1.16867L5.34082 2.21856C5.60479 2.9097 5.41521 3.68842 4.85847 4.18757V4.18877Z" fill="#4800FE"/>
</svg>
