<svg width="27" height="27" viewBox="0 0 27 27" fill="none" xmlns="http://www.w3.org/2000/svg">
<path d="M22.7919 25H4.49482C3.83316 25 3.19859 24.7372 2.73072 24.2693C2.26285 23.8014 2 23.1668 2 22.5052V13.6342C1.99996 13.3063 2.06459 12.9816 2.19019 12.6786C2.31579 12.3757 2.49989 12.1005 2.73196 11.8688L11.8799 2.73037C12.3476 2.26272 12.9819 2 13.6433 2C14.3048 2 14.9391 2.26272 15.4068 2.73037L24.5547 11.8688C24.7868 12.1005 24.9709 12.3757 25.0965 12.6786C25.2221 12.9816 25.2867 13.3063 25.2867 13.6342V22.5052C25.2867 23.1668 25.0239 23.8014 24.556 24.2693C24.0881 24.7372 23.4535 25 22.7919 25ZM6.99028 20.0104H20.2958V14.6683L13.6433 8.02211L6.99028 14.6683V20.0104ZM17.1596 4.48127L2 19.6642L17.1596 4.48127ZM6.99028 20.0104V25V20.0104ZM20.2958 20.0104L20.2964 25L20.2958 20.0104Z" fill="white"/>
<path d="M6.99028 20.0104H20.2958M6.99028 20.0104V14.6683L13.6433 8.02211L20.2958 14.6683V20.0104M6.99028 20.0104V25M20.2958 20.0104L20.2964 25M17.1596 4.48127L2 19.6642M22.7919 25H4.49482C3.83316 25 3.19859 24.7372 2.73072 24.2693C2.26285 23.8014 2 23.1668 2 22.5052V13.6342C1.99996 13.3063 2.06459 12.9816 2.19019 12.6786C2.31579 12.3757 2.49989 12.1005 2.73196 11.8688L11.8799 2.73037C12.3476 2.26272 12.9819 2 13.6433 2C14.3048 2 14.9391 2.26272 15.4068 2.73037L24.5547 11.8688C24.7868 12.1005 24.9709 12.3757 25.0965 12.6786C25.2221 12.9816 25.2867 13.3063 25.2867 13.6342V22.5052C25.2867 23.1668 25.0239 23.8014 24.556 24.2693C24.0881 24.7372 23.4535 25 22.7919 25Z" stroke="#3D00D8" stroke-width="2.08333" stroke-linecap="round" stroke-linejoin="round"/>
</svg>
