<svg width="35" height="38" viewBox="0 0 35 38" fill="none" xmlns="http://www.w3.org/2000/svg">
<path d="M0 1.26012H4.99396L7.268 20.1435L8.02601 31.1347H3.79006L0 1.26012ZM4.10218 32.6507H9.20762L9.98792 20.1435L12.2397 1.26012H17.2559L12.6633 36.9313H4.70413L4.10218 32.6507Z" fill="white"/>
<path d="M25.8929 37.288C23.5446 37.1542 21.8725 36.5151 20.8767 35.3707C19.8809 34.2114 19.3607 32.3906 19.3161 29.9085C19.2863 28.2439 19.2641 26.4975 19.2492 24.6693C19.2343 22.8412 19.2269 20.9833 19.2269 19.0957C19.2269 17.2081 19.2343 15.3502 19.2492 13.5221C19.2641 11.6791 19.2863 9.91781 19.3161 8.23829C19.3458 6.0683 19.8809 4.35162 20.9213 3.08827C21.9617 1.81005 23.6189 1.09663 25.8929 0.947998V4.9833C25.3133 5.1022 24.8823 5.3623 24.5999 5.7636C24.3175 6.16491 24.1614 6.72227 24.1317 7.43569C24.0722 9.32329 24.0276 11.248 23.9979 13.21C23.983 15.157 23.9756 17.1189 23.9756 19.0957C23.9756 21.0725 23.983 23.0418 23.9979 25.0037C24.0276 26.9657 24.0722 28.883 24.1317 30.7557C24.1614 31.4691 24.31 32.0265 24.5776 32.4278C24.86 32.8291 25.2984 33.1041 25.8929 33.2527V37.288ZM27.9886 37.288V33.2304C28.5831 33.0966 29.029 32.8291 29.3263 32.4278C29.6236 32.0116 29.7796 31.4543 29.7945 30.7557C29.8093 30.0869 29.8168 29.3437 29.8168 28.5263C29.8316 27.6939 29.8316 26.869 29.8168 26.0516C29.8019 25.2341 29.787 24.491 29.7722 23.8221H34.6101C34.6398 24.8031 34.6547 25.8212 34.6547 26.8765C34.6695 27.9169 34.6621 28.9276 34.6324 29.9085C34.5432 32.3609 33.9858 34.1668 32.9603 35.3261C31.9347 36.4854 30.2775 37.1394 27.9886 37.288ZM29.5938 14.1463C29.6087 13.4924 29.6161 12.7715 29.6161 11.9838C29.631 11.196 29.6384 10.4083 29.6384 9.62055C29.6384 8.81795 29.631 8.08966 29.6161 7.43569C29.6013 6.75199 29.4601 6.2095 29.1925 5.8082C28.925 5.40689 28.5237 5.13936 27.9886 5.00559V0.947998C30.2032 1.09663 31.8084 1.74317 32.8042 2.88762C33.8149 4.03207 34.3648 5.83049 34.454 8.28288C34.4689 8.80309 34.4763 9.42733 34.4763 10.1556C34.4763 10.869 34.4689 11.5825 34.454 12.2959C34.4392 12.9944 34.4243 13.6113 34.4094 14.1463H29.5938Z" fill="white"/>
</svg>
